<svg xmlns="http://www.w3.org/2000/svg" xmlns:html="http://www.w3.org/1999/xhtml" xmlns:xlink="http://www.w3.org/1999/xlink" version="1.1"><style xmlns="http://www.w3.org/1999/xhtml">
    .blocklyText {
        fill: #FFFFFF;
        font-family: "Helvetica Neue", Helvetica, sans-serif;
        font-size: 12pt;
        font-weight: 500;
    }
    .blocklyNonEditableText&gt;text, .blocklyEditableText&gt;text {
        fill: #575E75;
    }
    .blocklyDropdownText {
        fill: #FFFFFF !important;
    }
    </style><g data-id="E*yp^QpYqL81,)clt)y7" class="blocklyDraggable blocklySelected" data-shapes="stack" transform="translate(0,0) scale(1)"><path class="blocklyPath blocklyBlockBackground" stroke="#FF3355" fill="#FF6680" fill-opacity="1" d="m 0,4 A 4,4 0 0,1 4,0 H 12 c 2,0 3,1 4,2 l 4,4 c 1,1 2,2 4,2 h 12 c 2,0 3,-1 4,-2 l 4,-4 c 1,-1 2,-2 4,-2 H 286.5891170501709 a 4,4 0 0,1 4,4 v 40  a 4,4 0 0,1 -4,4 H 48   c -2,0 -3,1 -4,2 l -4,4 c -1,1 -2,2 -4,2 h -12 c -2,0 -3,-1 -4,-2 l -4,-4 c -1,-1 -2,-2 -4,-2 H 4 a 4,4 0 0,1 -4,-4 z"/><text class="blocklyText" y="2" text-anchor="middle" dominant-baseline="middle" dy="0" x="17.349536895751953" transform="translate(8, 24) ">send</text><path class="blocklyPath" style="visibility: hidden" d="" fill="#FF3355"/><text class="blocklyText" y="2" text-anchor="middle" dominant-baseline="middle" dy="0" x="28.020832061767578" transform="translate(110.95370292663574, 24) ">with arg</text><path class="blocklyPath" style="visibility: hidden" d="" fill="#FF3355"/><text class="blocklyText" y="2" text-anchor="middle" dominant-baseline="middle" dy="0" x="29.796875" transform="translate(222.9953670501709, 24) ">and wait</text><g data-id="i/P_|Zgl.=`.}Xp9x)=k" data-argument-type="text" data-shapes="argument round" transform="translate(50.699073791503906,8)"><path class="blocklyPath blocklyBlockBackground" stroke="#FF3355" fill="#FFFFFF" fill-opacity="1" d="m 0,0 m 16,0 H 36.254629135131836 a 16 16 0 0 1 0 32 H 16 a 16 16 0 0 1 0 -32 z"/><g class="blocklyEditableText" transform="translate(8, 0) " style="cursor: text;"><text class="blocklyText" x="18.127314567565918" y="18" dominant-baseline="middle" dy="0" text-anchor="middle">ping</text></g><g><g/></g></g><g data-id="mVKlrPj}2K|.pWfk-of?" data-argument-type="text" data-shapes="argument round" transform="translate(174.9953670501709,8)"><path class="blocklyPath blocklyBlockBackground" stroke="#FF3355" fill="#FFFFFF" fill-opacity="1" d="m 0,0 m 16,0 H 24 a 16 16 0 0 1 0 32 H 16 a 16 16 0 0 1 0 -32 z"/><g class="blocklyEditableText" transform="translate(8, 0) " style="cursor: text;"><text class="blocklyText" x="12" y="18" dominant-baseline="middle" dy="0" text-anchor="middle"> </text></g><g><g/></g></g><g><g/></g></g></svg>